<?xml version="1.0" encoding="UTF-8" standalone="no"?>
<svg
   version="1.0"
   width="1080.000000pt"
   height="1056.000000pt"
   viewBox="0 0 1080.000000 1056.000000"
   preserveAspectRatio="xMidYMid meet"
   id="svg246"
   sodipodi:docname="logo.svg"
   inkscape:version="1.2.2 (b0a8486541, 2022-12-01)"
   xmlns:inkscape="http://www.inkscape.org/namespaces/inkscape"
   xmlns:sodipodi="http://sodipodi.sourceforge.net/DTD/sodipodi-0.dtd"
   xmlns="http://www.w3.org/2000/svg"
   xmlns:svg="http://www.w3.org/2000/svg">
  <defs
     id="defs250" />
  <sodipodi:namedview
     id="namedview248"
     pagecolor="#ffffff"
     bordercolor="#000000"
     borderopacity="0.25"
     inkscape:showpageshadow="2"
     inkscape:pageopacity="0.0"
     inkscape:pagecheckerboard="0"
     inkscape:deskcolor="#d1d1d1"
     inkscape:document-units="pt"
     showgrid="false"
     inkscape:zoom="0.40495339"
     inkscape:cx="542.03769"
     inkscape:cy="590.19138"
     inkscape:window-width="1366"
     inkscape:window-height="696"
     inkscape:window-x="0"
     inkscape:window-y="40"
     inkscape:window-maximized="1"
     inkscape:current-layer="svg246" />
  <g
     transform="translate(0.000000,1056.000000) scale(0.100000,-0.100000)"
     fill="#000000"
     stroke="none"
     id="g244">
    <path
       d="M10670 10291 c0 -6 4 -13 10 -16 6 -3 7 1 4 9 -7 18 -14 21 -14 7z"
       id="path206" />
    <path
       d="M6830 8474 c-8 -2 -109 -13 -224 -24 -316 -31 -397 -52 -541 -135 -49 -29 -122 -69 -162 -90 -93 -48 -225 -159 -388 -326 -258 -265 -340 -416 -406 -749 -31 -158 -5 -513 55 -735 69 -257 122 -316 433 -487 183 -100 301 -152 498 -217 96 -32 162 -61 204 -89 34 -23 79 -44 99 -48 40 -7 218 -89 228 -105 11 -18 -17 -38 -84 -60 -85 -28 -159 -29 -242 -2 -132 43 -184 39 -221 -19 -30 -48 -22 -197 16 -287 19 -47 26 -81 26 -125 0 -34 6 -97 14 -141 8 -44 22 -147 30 -230 8 -82 20 -188 26 -235 15 -126 13 -166 -15 -259 -14 -47 -26 -90 -26 -96 0 -7 11 -29 25 -49 17 -25 21 -38 12 -40 -6 -2 -105 -10 -219 -17 -320 -19 -984 4 -1328 46 -237 29 -1034 71 -1620 84 -217 5 -402 12 -410 15 -8 3 -96 11 -195 16 -99 6 -211 15 -250 20 -38 5 -133 9 -211 9 -128 1 -148 4 -227 30 -48 16 -160 48 -249 71 -90 23 -244 68 -343 100 -166 53 -270 79 -385 95 -25 4 -91 15 -147 26 -65 12 -151 19 -232 20 -184 1 -210 -17 -231 -158 -24 -170 -7 -236 101 -397 86 -128 151 -201 199 -226 21 -11 67 -41 103 -68 117 -89 355 -190 566 -241 42 -10 133 -35 203 -54 227 -64 362 -87 586 -100 l206 -12 7 -30 c4 -16 10 -37 13 -46 6 -13 -3 -20 -40 -33 -59 -20 -146 -85 -183 -137 -54 -74 -62 -182 -25 -316 17 -64 90 -147 162 -186 58 -31 187 -67 243 -67 59 0 147 37 189 81 20 21 57 77 80 123 41 81 43 87 38 158 -3 43 -13 92 -25 120 l-21 46 32 6 c18 4 67 29 109 56 83 54 109 90 128 179 19 90 9 87 225 72 104 -7 268 -13 364 -12 185 2 555 -11 880 -32 107 -6 274 -12 370 -12 96 -1 235 -7 308 -14 74 -7 173 -11 220 -8 48 3 296 -2 552 -10 362 -12 499 -13 620 -4 185 13 1068 19 1126 8 l41 -8 6 -79 c6 -88 44 -188 84 -220 13 -10 49 -24 79 -31 49 -11 55 -15 49 -33 -30 -95 -36 -127 -32 -191 11 -197 151 -307 372 -291 146 11 225 63 293 191 23 43 27 63 27 135 0 99 -15 135 -105 259 -49 67 -52 75 -40 95 34 53 42 80 38 119 l-5 42 306 1 c326 0 350 3 541 58 47 14 128 37 180 50 187 50 507 233 629 360 57 59 109 137 152 226 23 47 56 116 75 154 57 116 43 208 -42 267 -78 53 -116 62 -269 63 l-140 1 -119 -52 c-65 -29 -157 -74 -205 -101 -164 -94 -194 -106 -372 -146 -119 -27 -334 -55 -615 -80 -165 -15 -215 -14 -494 14 -77 8 -265 11 -570 8 -250 -2 -437 -3 -415 -1 22 2 65 8 95 14 30 6 114 10 185 9 220 -2 338 27 595 145 162 74 211 104 346 214 233 187 453 471 581 749 62 135 78 217 78 392 0 273 -46 411 -181 545 -187 185 -289 233 -609 289 -159 27 -250 32 -575 28 -210 -3 -545 20 -647 43 -95 22 -214 71 -255 105 -45 37 -62 85 -56 158 6 71 35 97 150 134 188 61 330 79 663 82 180 2 280 7 300 15 16 7 39 10 52 7 33 -9 70 13 89 52 13 28 16 69 17 221 0 226 -17 432 -82 987 -5 39 -7 83 -4 97 7 35 -23 61 -144 124 -124 65 -254 109 -363 122 -78 10 -296 13 -330 5z m435 -197 c50 -13 126 -35 171 -48 l81 -24 -5 -90 c-3 -70 1 -120 21 -225 16 -85 28 -189 31 -280 3 -80 11 -210 16 -290 6 -80 8 -191 4 -247 -7 -117 -2 -112 -99 -87 -40 10 -128 18 -260 21 -172 5 -220 2 -340 -16 -241 -36 -421 -95 -488 -159 -50 -47 -80 -118 -85 -203 -11 -179 73 -294 271 -373 193 -77 394 -98 952 -100 335 -2 413 -5 480 -20 44 -9 124 -23 178 -31 115 -17 166 -38 245 -99 145 -112 201 -198 209 -315 2 -36 11 -83 20 -103 22 -51 13 -123 -32 -278 -43 -148 -109 -279 -232 -463 -100 -148 -197 -249 -333 -347 -52 -37 -138 -100 -190 -139 -136 -102 -345 -201 -425 -201 -18 0 -52 -7 -76 -16 -73 -26 -382 -45 -521 -31 -90 8 -138 8 -201 -1 -46 -7 -124 -12 -175 -12 -89 0 -92 1 -92 23 0 12 -5 63 -10 112 -5 50 -14 160 -20 245 -18 250 -82 619 -126 726 -8 19 -12 34 -9 34 3 0 54 -12 113 -26 69 -17 134 -27 182 -27 234 2 428 184 370 349 -24 66 -269 201 -418 228 -45 9 -95 22 -110 30 -15 7 -67 26 -117 41 -303 92 -690 282 -765 376 -54 68 -125 213 -154 312 -14 48 -32 97 -39 109 -30 48 -50 202 -44 336 5 118 9 138 55 277 61 187 91 247 189 377 181 240 392 422 628 541 116 58 199 83 322 97 54 7 166 20 248 31 215 26 455 21 580 -14z m-6780 -3974 c-39 -93 -41 -109 -20 -181 20 -66 89 -142 233 -255 114 -90 166 -121 222 -131 19 -4 51 -13 70 -21 19 -8 91 -28 160 -45 68 -17 132 -36 141 -41 50 -26 288 -83 469 -111 200 -32 214 -33 540 -33 341 -1 680 -16 736 -34 57 -16 216 -22 349 -12 79 6 174 6 240 1 276 -22 610 -40 715 -38 63 1 234 0 380 -4 255 -6 422 2 503 23 27 7 75 5 170 -6 72 -8 153 -15 178 -15 29 0 51 -6 59 -15 19 -22 101 -18 285 14 112 20 164 25 173 18 8 -7 92 -8 245 -3 210 6 244 4 352 -15 129 -22 163 -23 670 -22 327 0 448 -1 971 -13 266 -6 274 -6 380 19 60 14 156 31 214 37 257 29 504 108 653 209 199 136 237 176 300 317 36 78 66 222 52 244 -8 13 1 13 25 0 43 -23 53 -157 22 -272 -52 -184 -237 -387 -453 -495 -169 -84 -287 -113 -677 -163 -250 -32 -337 -36 -392 -19 -44 14 -846 13 -1106 -1 -184 -10 -398 -12 -919 -9 -167 1 -351 -3 -435 -11 -148 -13 -314 -9 -425 10 -33 6 -138 13 -234 16 -96 3 -179 8 -185 12 -6 4 -351 7 -766 7 -560 1 -774 4 -830 14 -41 6 -154 14 -250 15 -96 2 -274 7 -395 11 -193 7 -227 5 -279 -10 -64 -19 -151 -17 -416 9 -74 8 -164 14 -200 15 -264 4 -763 73 -877 122 -50 21 -232 131 -373 225 -205 136 -433 342 -473 427 -32 67 -19 129 41 190 34 35 39 37 100 37 57 0 63 -2 57 -17z m1835 -473 c0 -5 -18 -10 -40 -10 -22 0 -40 5 -40 10 0 6 18 10 40 10 22 0 40 -4 40 -10z m265 -29 c3 -5 1 -12 -4 -15 -13 -8 -71 5 -71 15 0 12 67 11 75 0z m5495 -114 c0 -8 -22 -17 -55 -23 -65 -12 -71 4 -9 23 52 15 64 15 64 0z m-310 -6 c0 -11 -16 -16 -72 -26 -47 -7 -49 1 -5 20 37 16 77 19 77 6z m-5460 -27 c23 -8 -8 -24 -47 -24 -37 0 -51 15 -27 28 16 9 36 7 74 -4z m274 -10 c34 -13 14 -25 -36 -22 -63 4 -80 28 -20 28 22 0 47 -3 56 -6z m5490 -103 c8 -13 -19 -21 -72 -21 -70 0 -33 24 45 29 12 0 24 -3 27 -8z m-274 -21 c0 -13 -56 -22 -110 -18 -43 4 -44 4 -20 15 30 14 130 17 130 3z m-5076 -332 c-12 -39 -31 -72 -57 -96 l-24 -23 -6 30 c-4 20 -17 35 -37 46 -21 11 -30 23 -30 40 0 25 2 25 81 25 79 0 80 0 73 -22z m-364 -18 c0 -23 -10 -26 -28 -8 -18 18 -15 28 8 28 13 0 20 -7 20 -20z m5433 -72 c-8 -44 -11 -45 -23 -14 -11 31 -6 46 15 46 11 0 13 -8 8 -32z m-86 -10 c-3 -18 2 -68 10 -112 8 -43 12 -80 10 -82 -11 -12 -97 107 -106 147 -18 77 -17 79 40 79 l51 0 -5 -32z m433 24 c0 -5 -8 -16 -18 -25 -17 -16 -20 -15 -42 8 l-23 25 41 0 c23 0 42 -4 42 -8z m-5568 -72 c22 -1 22 -1 4 -15 -11 -8 -30 -15 -43 -15 -18 0 -23 6 -23 25 0 22 3 24 19 15 11 -5 30 -10 43 -10z m5493 -81 c-4 -5 -15 -9 -26 -9 -15 0 -19 7 -19 38 l1 37 24 -28 c14 -16 23 -33 20 -38z m-5730 25 c63 -17 84 -39 129 -134 51 -107 51 -169 -3 -259 -62 -105 -101 -131 -189 -131 -89 0 -219 55 -267 112 -47 56 -65 106 -65 186 0 89 16 128 73 175 78 64 121 78 212 70 33 -2 83 -11 110 -19z m5535 -75 c8 -14 6 -21 -11 -30 -25 -13 -39 1 -39 38 0 16 5 20 20 16 11 -3 25 -14 30 -24z m302 -48 c44 -35 127 -166 140 -219 9 -43 9 -58 -6 -96 -24 -61 -65 -121 -105 -150 -32 -24 -41 -25 -157 -24 -105 1 -128 4 -160 22 -86 48 -123 209 -73 314 35 72 155 145 264 161 33 5 63 9 66 10 4 0 17 -8 31 -18z"
       id="path208" />
    <path
       d="M6854 8130 c-45 -10 -135 -22 -200 -28 -138 -13 -401 -83 -493 -132 -162 -87 -409 -300 -532 -458 -121 -156 -143 -203 -173 -359 -38 -202 -39 -249 -11 -424 31 -187 47 -245 91 -330 55 -104 72 -117 409 -299 140 -76 399 -173 605 -225 127 -33 335 -143 407 -217 28 -29 51 -67 69 -113 37 -99 30 -175 -28 -292 -46 -92 -51 -97 -163 -133 -38 -12 -99 -39 -134 -58 -36 -20 -100 -48 -144 -62 l-79 -27 -3 -79 c-2 -43 5 -140 15 -214 10 -74 24 -178 30 -230 14 -108 29 -154 59 -169 29 -16 480 -4 548 15 28 8 95 23 147 34 158 32 393 128 528 216 105 67 402 311 445 364 26 33 124 219 148 283 14 39 34 130 46 209 37 252 3 358 -146 460 -98 68 -202 106 -327 118 -57 6 -150 18 -207 27 -84 13 -144 15 -321 10 -192 -6 -232 -5 -335 13 -64 11 -152 20 -195 20 -93 0 -145 9 -315 56 -205 56 -221 63 -294 119 -122 96 -168 197 -158 348 3 51 13 119 22 151 41 153 232 370 388 441 85 39 301 68 452 61 177 -9 367 -6 381 5 7 5 17 39 24 76 16 80 9 229 -20 428 -11 77 -20 190 -20 252 l0 112 -37 11 c-21 6 -99 15 -174 20 -75 4 -156 11 -180 13 -24 3 -81 -3 -125 -13z"
       id="path210" />
    <path
       d="M2110 2858 c-40 -27 -70 -79 -70 -124 0 -42 54 -121 99 -143 70 -36 140 -32 187 12 49 44 58 112 24 181 -30 64 -70 89 -145 94 -50 3 -66 0 -95 -20z"
       id="path212" />
    <path
       d="M7983 2750 c-50 -30 -88 -95 -88 -149 0 -113 128 -183 241 -132 64 29 84 62 84 137 0 57 -3 67 -32 100 -57 64 -142 83 -205 44z"
       id="path214" />
    <path
       d="M3830 7973 c-572 -62 -609 -69 -871 -167 -436 -162 -622 -269 -835 -480 -66 -67 -139 -148 -161 -181 -55 -84 -267 -469 -320 -582 -82 -176 -95 -228 -103 -413 -4 -96 -12 -178 -19 -195 -7 -16 -14 -73 -14 -125 -2 -154 72 -459 148 -610 70 -139 356 -496 497 -620 88 -78 122 -102 213 -153 44 -25 115 -65 158 -90 43 -25 102 -51 130 -58 29 -6 64 -20 79 -31 79 -55 384 -145 574 -169 228 -28 756 7 989 67 55 14 145 36 200 49 119 27 303 99 394 154 36 22 122 86 191 141 69 56 153 117 187 136 72 41 167 139 202 209 18 36 22 55 17 83 -4 21 -7 67 -6 103 1 80 -22 174 -97 399 -55 166 -186 453 -256 562 -19 31 -39 73 -43 92 -7 40 -53 86 -85 86 -36 0 -262 -72 -353 -112 -50 -22 -145 -57 -212 -79 -66 -21 -145 -54 -175 -72 -30 -19 -79 -49 -109 -67 -30 -18 -72 -44 -93 -57 -50 -31 -79 -95 -77 -166 3 -97 5 -93 -62 -120 -35 -13 -121 -44 -192 -67 -150 -49 -192 -49 -286 -3 -44 23 -64 41 -103 98 -54 78 -179 328 -196 390 -18 66 -14 205 9 276 36 118 69 138 99 59 26 -68 125 -214 166 -246 32 -24 48 -28 121 -32 80 -4 92 -2 197 36 62 22 146 52 187 65 166 55 450 161 534 198 49 22 130 51 181 64 107 28 187 57 231 84 67 41 81 135 40 268 -13 43 -32 110 -42 148 -9 39 -48 131 -86 205 -82 162 -95 195 -158 411 -59 198 -83 255 -151 358 -59 90 -88 113 -137 113 -20 0 -47 4 -61 10 -65 24 -330 43 -441 31z m343 -180 c18 -9 57 -24 87 -33 51 -15 57 -20 97 -86 33 -53 58 -117 104 -269 33 -110 78 -247 101 -305 22 -58 51 -136 64 -174 13 -38 47 -119 75 -179 28 -61 54 -128 56 -149 6 -44 -4 -51 -97 -62 -30 -4 -82 -19 -115 -35 -33 -16 -73 -33 -90 -39 -16 -5 -64 -24 -105 -41 -236 -97 -813 -296 -818 -281 -3 7 -16 26 -31 43 -15 18 -38 61 -50 97 -59 164 -85 193 -179 198 -130 8 -199 -32 -253 -144 -54 -114 -73 -273 -49 -416 11 -70 136 -342 204 -445 55 -83 143 -168 202 -194 106 -47 204 -59 289 -34 28 8 84 24 125 35 137 39 287 108 320 148 34 41 52 113 44 175 -7 52 -1 59 81 82 33 10 150 62 260 116 234 114 384 172 420 163 30 -7 97 -114 148 -234 19 -47 65 -200 102 -340 70 -268 97 -359 119 -400 13 -22 11 -28 -34 -80 -26 -30 -61 -75 -78 -100 -67 -98 -199 -203 -382 -303 -102 -56 -230 -101 -425 -150 -267 -67 -422 -87 -726 -94 -285 -7 -327 -3 -544 52 -140 36 -207 60 -283 100 -26 14 -54 25 -62 25 -45 0 -358 177 -453 257 -113 94 -357 382 -457 539 -50 80 -144 412 -156 552 -4 48 -2 92 5 117 7 22 16 110 21 195 5 85 16 178 24 205 14 46 62 182 82 230 14 35 255 468 287 515 61 92 247 263 383 352 114 76 156 96 369 181 370 146 409 157 692 188 103 12 213 25 243 29 30 4 122 8 203 9 120 1 154 -2 180 -16z"
       id="path216" />
    <path
       d="M3860 7653 c-116 -19 -263 -47 -355 -68 -137 -30 -252 -53 -330 -66 -33 -6 -89 -21 -125 -34 -36 -13 -103 -37 -149 -54 -149 -54 -303 -156 -442 -293 -226 -223 -410 -497 -469 -698 -12 -41 -37 -109 -55 -151 -19 -42 -41 -114 -51 -159 -16 -75 -17 -100 -6 -274 7 -105 18 -216 25 -246 16 -65 90 -266 119 -324 77 -152 223 -354 320 -441 246 -221 488 -330 863 -386 77 -12 192 -35 255 -51 133 -35 239 -40 309 -14 24 9 69 16 100 16 100 1 348 66 568 151 60 23 144 55 188 71 157 57 243 107 328 189 71 68 79 80 73 103 -13 52 -38 252 -40 321 -2 39 -17 133 -35 210 -17 77 -35 156 -39 175 -10 51 -39 62 -140 56 -63 -4 -116 -16 -220 -51 -75 -26 -142 -51 -148 -56 -6 -5 -14 -46 -18 -92 -8 -111 -20 -148 -61 -190 -65 -67 -274 -148 -430 -167 -49 -6 -155 -20 -234 -32 -126 -19 -152 -20 -215 -9 -39 6 -87 22 -107 34 -60 36 -246 203 -295 265 -103 130 -125 176 -230 472 -46 131 -55 246 -26 350 12 41 26 104 32 140 31 182 64 239 174 305 56 33 65 35 145 35 102 -1 130 -10 242 -77 92 -56 187 -158 230 -246 12 -25 28 -48 35 -51 17 -7 328 100 509 174 83 34 185 73 228 86 86 26 137 52 137 69 0 17 -53 169 -100 285 -23 58 -64 168 -90 245 -145 417 -150 429 -222 464 -36 17 -61 21 -134 20 -49 -1 -100 -4 -114 -6z"
       id="path218" />
    <path
       d="M5824 4841 c-21 -16 -57 -48 -79 -71 -22 -23 -59 -55 -82 -71 -80 -56 -87 -102 -35 -248 27 -78 60 -120 134 -168 44 -30 108 -34 186 -14 51 14 72 43 72 99 0 37 6 48 40 82 41 40 56 75 46 108 -4 11 -38 55 -77 99 -48 54 -74 92 -84 125 -29 98 -53 110 -121 59z m64 -34 c10 -11 14 -27 28 -97 3 -14 37 -54 77 -92 l71 -66 -40 -44 c-23 -25 -50 -70 -63 -106 -32 -85 -54 -99 -128 -83 -68 16 -121 61 -157 134 -43 86 -36 123 43 213 20 22 58 66 84 97 49 58 66 67 85 44z"
       id="path220" />
    <path
       d="M5860 4760 c0 -5 5 -10 11 -10 5 0 7 5 4 10 -3 6 -8 10 -11 10 -2 0 -4 -4 -4 -10z"
       id="path222" />
    <path
       d="M5830 4690 c0 -5 5 -10 10 -10 6 0 10 5 10 10 0 6 -4 10 -10 10 -5 0 -10 -4 -10 -10z"
       id="path224" />
    <path
       d="M5770 4576 c-21 -57 -23 -96 -5 -116 42 -47 82 -1 51 58 -9 17 -16 42 -16 57 0 32 -18 33 -30 1z"
       id="path226" />
    <path
       d="M5884 4567 c-13 -35 -9 -71 10 -75 29 -6 37 10 24 51 -12 38 -25 47 -34 24z"
       id="path228" />
    <path
       d="M5410 4533 c-14 -9 -27 -18 -29 -19 -2 -2 -5 -25 -8 -51 -5 -61 16 -84 85 -91 63 -6 80 12 63 67 -6 21 -11 49 -11 63 0 48 -52 64 -100 31z m75 -100 c7 -21 4 -23 -28 -23 -48 0 -63 21 -47 61 7 17 23 34 34 39 18 6 22 3 28 -24 3 -17 9 -41 13 -53z"
       id="path230" />
    <path
       d="M5336 4291 c-112 -39 -107 -104 10 -160 56 -27 72 -31 91 -22 24 11 63 86 63 120 0 28 -69 82 -102 80 -7 0 -35 -8 -62 -18z m95 -32 c34 -24 36 -42 9 -86 l-19 -32 -48 20 c-57 25 -88 52 -78 69 7 12 82 49 98 50 5 0 22 -9 38 -21z"
       id="path232" />
    <path
       d="M5380 4241 c0 -6 5 -13 10 -16 6 -3 10 1 10 9 0 9 -4 16 -10 16 -5 0 -10 -4 -10 -9z"
       id="path234" />
    <path
       d="M5352 4199 c2 -7 10 -15 17 -17 8 -3 12 1 9 9 -2 7 -10 15 -17 17 -8 3 -12 -1 -9 -9z"
       id="path236" />
    <path
       d="M5406 4203 c-11 -11 -6 -23 9 -23 8 0 15 4 15 9 0 13 -16 22 -24 14z"
       id="path238" />
    <path
       d="M5619 4106 c-15 -33 -5 -56 24 -56 53 0 66 72 15 78 -22 3 -30 -2 -39 -22z"
       id="path240" />
    <path
       d="M5890 4047 c0 -9 -6 -17 -12 -20 -10 -3 -10 -7 -1 -17 17 -19 45 -4 41 22 -3 24 -28 38 -28 15z"
       id="path242" />
  </g>
  <path
     style="fill:#ffffff;stroke-width:2.67681"
     d="m 853.83045,856.92047 c -0.54469,-1.66064 -2.29539,-18.67864 -3.89045,-37.81781 -3.01926,-36.22819 -11.4442,-89.43375 -16.1011,-101.68233 -2.34371,-6.16442 -2.08358,-6.89813 1.99115,-5.61634 36.7101,11.54801 70.79077,2.71821 82.18475,-21.29282 7.21836,-15.21156 3.35146,-24.6268 -14.5112,-35.33229 -15.12664,-9.06569 -16.90073,-9.75013 -67.60497,-26.08095 -35.48623,-11.4294 -84.67932,-34.27612 -97.90095,-45.46806 -9.82411,-8.31598 -18.5523,-24.10571 -29.3184,-53.03834 -6.06375,-16.29565 -7.17876,-23.51367 -7.11975,-46.08963 0.0612,-23.41102 1.12466,-29.55488 8.47968,-48.98933 10.41559,-27.5215 25.84139,-49.42767 53.21473,-75.57022 23.24022,-22.19527 46.84825,-37.77622 69.0744,-45.58808 7.97249,-2.8021 33.35047,-7.15251 56.39553,-9.66757 44.74522,-4.88334 65.51077,-3.60564 97.00997,5.96902 13.69596,4.1631 14.05323,4.52694 14.05323,14.31162 0,5.52196 1.70873,22.59637 3.79723,37.94314 4.5407,33.36626 8.1609,101.38773 5.793,108.84825 -1.4866,4.68383 -3.0181,5.05144 -12.9989,3.12004 -46.25933,-8.95171 -131.67005,4.77149 -146.42246,23.52614 -18.66221,23.72516 -9.74601,58.4299 18.7832,73.11029 21.71498,11.17398 39.10951,13.5512 117.6639,16.08057 76.48496,2.46274 112.74586,6.5457 127.94776,14.40689 13.6984,7.08374 32.1135,27.11647 35.0714,38.15212 6.5478,24.42995 6.3687,38.85563 -0.76,61.21242 -8.6936,27.26442 -30.6143,64.13951 -49.8513,83.86019 -17.986,18.43813 -53.9766,44.77938 -76.9959,56.3526 -9.2322,4.64161 -26.09606,10.11825 -37.47529,12.17031 -27.14818,4.89577 -129.13072,7.373 -130.50926,3.17017 z m 120.52696,-25.75018 c 41.22789,-11.16257 74.49199,-30.52785 118.26899,-68.85221 25.4973,-22.32154 43.6996,-88.7392 31.9961,-116.74957 -4.4438,-10.63565 -17.8212,-22.27879 -33.1431,-28.84652 -16.4586,-7.05499 -63.8579,-12.48899 -123.814,-14.19444 -78.18948,-2.2241 -119.7266,-13.70136 -138.43401,-38.2512 -6.63924,-8.71271 -7.4503,-11.99035 -7.43703,-30.05439 0.0182,-24.93382 5.94419,-38.43211 25.75283,-58.6612 24.21716,-24.73119 41.74157,-29.87255 101.82119,-29.87255 h 36.93268 l 1.75031,-6.97387 c 1.6863,-6.71879 0.43131,-40.97414 -3.29954,-90.06035 -1.43624,-18.8965 -2.61243,-23.45459 -6.08733,-23.59048 -2.36889,-0.0926 -14.54587,-1.18721 -27.05994,-2.43238 -17.67999,-1.75919 -30.25424,-1.15188 -56.39816,2.72393 -62.72756,9.29929 -88.9183,21.81619 -128.62837,61.47315 -26.84471,26.80882 -35.65165,42.58843 -41.31051,74.01709 -4.20378,23.3473 -4.19729,26.56133 0.10563,52.29468 5.37372,32.13717 11.93462,47.60595 24.62993,58.0705 15.48113,12.76084 64.94165,36.59212 97.30756,46.88514 37.98453,12.07983 48.37025,16.39731 66.04349,27.45498 15.13797,9.47142 24.8664,24.35562 24.8664,38.0448 0,9.34211 -8.7334,30.88879 -13.8317,34.12497 -4.27494,2.71356 -27.62001,12.82514 -47.06564,20.38581 l -14.05323,5.46403 v 18.16569 c 0,20.89747 4.29242,55.88413 8.47347,69.06553 l 2.8617,9.02196 39.16892,-1.42754 c 28.10844,-1.02444 45.2159,-3.06478 60.58336,-7.22556 z"
     id="path2623"
     transform="scale(0.75)" />
  <path
     style="fill:#ffffff;stroke-width:2.67681"
     d="m 429.92383,835.04277 c -22.65587,-4.91501 -37.88231,-9.78605 -60.52459,-19.36216 -44.35818,-18.76048 -72.37946,-41.07169 -106.01865,-84.41456 -15.27281,-19.67846 -19.63048,-27.7119 -26.2623,-48.41507 -10.7377,-33.52092 -11.96116,-45.71907 -8.30316,-82.78445 3.7263,-37.75742 8.98019,-52.96783 34.03603,-98.53697 28.11718,-51.13681 58.09921,-77.97797 111.88592,-100.16495 45.18722,-18.6397 60.05276,-22.8273 99.96927,-28.16124 62.53845,-8.35684 90.30491,-5.84148 102.75179,9.30827 2.5419,3.09388 10.22133,22.48912 17.06542,43.10053 6.84405,20.6114 18.31567,52.29598 25.49243,70.41016 7.17675,18.11419 13.04865,33.91703 13.04865,35.11744 0,1.20041 -4.07078,2.84316 -9.04619,3.65056 -4.97538,0.80739 -23.34496,7.14939 -40.82129,14.09332 -29.75091,11.82104 -106.89393,38.67529 -111.1008,38.67529 -1.04444,0 -6.19963,-9.06048 -11.45597,-20.1344 -10.49823,-22.11735 -17.10786,-26.95427 -33.30375,-24.37162 -18.62893,2.97064 -27.99052,15.41274 -32.51544,43.21491 -3.45141,21.20628 0.64589,40.64781 14.55082,69.0431 25.11311,51.28351 50.17604,64.13994 96.93156,49.72264 38.25038,-11.79468 49.13368,-20.90543 49.13368,-41.13124 0,-7.05505 1.33412,-9.48004 6.02282,-10.94758 3.31254,-1.0368 22.88669,-9.6929 43.49809,-19.23579 48.69775,-22.54659 50.40748,-22.60176 61.74983,-1.99272 5.39213,9.79748 14.14906,35.26017 22.45505,65.29289 15.35507,55.52068 15.83872,49.80275 -6.29113,74.37749 -12.85668,14.27707 -38.89989,32.32262 -59.21556,41.03094 -48.04805,20.5958 -148.81794,32.35911 -193.73253,22.61521 z m 93.39176,-14.55489 c 23.45281,-3.51826 84.16569,-23.29758 111.08745,-36.19063 10.30571,-4.93547 22.82502,-13.21116 27.82072,-18.39043 l 9.0831,-9.41685 -3.11969,-28.92179 c -3.69835,-34.28662 -10.7228,-70.28755 -14.71464,-75.41409 -4.09661,-5.26104 -33.95697,-2.44368 -52.98757,4.99947 l -15.1804,5.93729 -1.80436,13.76256 c -2.38198,18.16831 -6.74756,24.41175 -22.73358,32.51249 -15.27484,7.74036 -36.26451,12.88861 -71.54851,17.54909 -21.89663,2.8922 -26.08821,2.74707 -36.59989,-1.26739 -15.90192,-6.07298 -49.63593,-38.8294 -58.85545,-57.14984 -9.57889,-19.03455 -23.02513,-59.77018 -23.02513,-69.75506 0,-13.80419 11.13709,-57.63599 16.62477,-65.42948 11.02429,-15.65644 33.88726,-19.8844 54.24213,-10.03077 12.46899,6.03613 32.18728,24.51543 37.88108,35.50082 2.09845,4.04867 5.96759,7.36122 8.59809,7.36122 5.41526,0 40.06121,-11.53482 70.03036,-23.31548 11.04182,-4.34046 25.79772,-10.00398 32.79087,-12.58558 6.99316,-2.5816 12.71483,-6.19871 12.71483,-8.03801 0,-4.27296 -39.17064,-112.36043 -44.34614,-122.36875 -2.14048,-4.13923 -6.20925,-8.76615 -9.04171,-10.28203 -9.99857,-5.35107 -41.49791,-2.7342 -92.49808,7.68447 -76.53491,15.63508 -101.17612,27.46387 -138.11095,66.29888 -32.32998,33.99326 -44.81531,54.07074 -59.94078,96.38996 -11.85707,33.17463 -13.18083,43.86286 -9.64016,77.83593 7.78866,74.73286 59.96716,142.44415 127.38771,165.30918 7.36121,2.4965 32.65703,8.56677 56.21293,13.48953 44.25842,9.24922 51.94148,9.58553 89.673,3.92529 z"
     id="path2625"
     transform="scale(0.75)" />
  <path
     style="fill:#ffffff;stroke-width:2.67681"
     d="m 768.2892,825.35251 c -4.05248,-3.18769 -8.92344,-9.49474 -10.82435,-14.01568 -3.98049,-9.4668 -2.64923,-13.00243 11.37153,-30.201 8.68515,-10.65366 9.38154,-10.98302 14.30628,-6.76633 2.8472,2.43785 5.17673,5.61311 5.17673,7.05614 0,1.44302 3.62407,6.36277 8.0535,10.93277 l 8.05349,8.3091 -8.25455,15.24039 c -9.34065,17.24568 -15.36916,19.2877 -27.88263,9.44461 z m 7.34744,-19.67037 c -0.7159,-11.41672 -1.75716,-13.32688 -5.8768,-10.7808 -3.15099,1.94742 -3.93203,18.21671 -1.01459,21.13415 4.16531,4.16531 7.48871,-0.82764 6.89139,-10.35335 z m 14.87653,-1.76144 c -1.261,-8.56979 -7.54739,-9.48762 -7.54739,-1.10194 0,4.49839 1.4683,6.91508 4.20138,6.91508 2.79014,0 3.91407,-1.95263 3.34601,-5.81314 z m -10.2242,-20.95492 c 0,-1.47224 -1.27565,-2.67681 -2.83478,-2.67681 -1.55913,0 -2.09032,1.20457 -1.18043,2.67681 0.9099,1.47224 2.18555,2.67681 2.83479,2.67681 0.64923,0 1.18042,-1.20457 1.18042,-2.67681 z"
     id="path2627"
     transform="scale(0.75)" />
  <path
     style="fill:#ffffff;stroke-width:0.807554"
     d="m 721.98283,817.68109 c -1.82411,-2.01562 -1.18533,-4.81819 1.88022,-8.24913 3.11933,-3.49114 4.455,-2.68107 6.05018,3.66937 0.72986,2.90561 1.32703,5.48079 1.32703,5.72262 0,0.24184 -1.76068,0.4397 -3.91261,0.4397 -2.86021,0 -4.29784,-0.42567 -5.34482,-1.58256 z"
     id="path2629"
     transform="scale(0.75)" />
  <path
     style="fill:#ffffff;stroke-width:0.807554"
     d="m 715.47017,852.07476 c -6.88022,-3.32551 -9.99383,-6.32838 -8.46802,-8.16687 1.76901,-2.13153 11.18761,-6.22047 13.00198,-5.64461 2.62977,0.83465 7.19836,5.24727 7.19836,6.95261 0,2.25911 -3.88483,9.58015 -5.0836,9.58015 -0.56025,0 -3.55217,-1.22458 -6.64872,-2.72128 z m 2.04167,-2.36631 c 0,-1.35048 -1.63748,-2.98796 -2.98795,-2.98796 -1.34335,0 -1.37751,2.96341 -0.0404,3.50295 1.84988,0.74644 3.02833,0.54604 3.02833,-0.51499 z m 6.31471,-0.76718 c -0.16938,-1.19261 -0.81307,-1.817 -1.87317,-1.817 -1.06009,0 -1.70378,0.62439 -1.87316,1.817 -0.21168,1.49049 0.12492,1.817 1.87316,1.817 1.74825,0 2.08485,-0.32651 1.87317,-1.817 z m -3.53331,-4.57056 c 0.68465,-1.1078 -0.3846,-3.30309 -1.60881,-3.30309 -1.44945,0 -2.09338,1.18793 -1.49259,2.75356 0.53679,1.39885 2.37517,1.72459 3.1014,0.54953 z"
     id="path2631"
     transform="scale(0.75)" />
  <path
     style="fill:#ffffff;stroke-width:0.433413"
     d="m 1063.9011,919.55008 c -0.4601,-0.29186 -0.4591,-0.44228 0.01,-0.8277 1.2926,-1.07274 9.5003,-3.5699 11.7336,-3.5699 1.3466,0 1.793,1.00768 0.8214,1.85396 -0.9651,0.84062 -4.3941,1.91204 -7.8806,2.46236 -3.3871,0.53465 -3.9496,0.54442 -4.6797,0.0813 z"
     id="path2635"
     transform="scale(0.75)" />
  <path
     style="fill:#ffffff;stroke-width:0.433413"
     d="m 1022.639,919.92336 c 3.1231,-2.4333 12.7857,-4.40551 12.7857,-2.60965 0,0.35436 -0.5364,0.90137 -1.192,1.21558 -1.4364,0.68849 -9.3322,2.26143 -11.284,2.24793 l -1.3932,-0.01 z"
     id="path2637"
     transform="scale(0.75)" />
  <path
     style="fill:#ffffff;stroke-width:0.433413"
     d="m 1024.7328,940.78407 c -1.5898,-0.15229 -3.0119,-0.39876 -3.1602,-0.5477 -0.494,-0.49592 3.2847,-1.705 6.8124,-2.17975 3.4745,-0.4676 10.4577,-0.34376 10.9964,0.19501 0.6026,0.60257 -0.8693,1.57664 -3.0148,1.99511 -3.2044,0.625 -8.2743,0.85916 -11.6338,0.53733 z"
     id="path2639"
     transform="scale(0.75)" />
  <path
     style="fill:#ffffff;stroke-width:0.433413"
     d="m 1063.4882,938.28064 c -2.3791,-0.53072 -0.5569,-1.68099 4.0636,-2.56503 3.8515,-0.73691 6.8235,-0.8029 7.9922,-0.17744 2.3513,1.25838 -0.6895,2.53113 -6.6334,2.77645 -2.4459,0.10095 -4.886,0.0857 -5.4224,-0.034 z"
     id="path2641"
     transform="scale(0.75)" />
  <path
     style="fill:#ffffff;stroke-width:0.433413"
     d="m 845.80633,965.11189 v -12.11493 l 10.12347,-0.26635 c 12.94293,-0.34053 22.74001,0.20837 32.56776,1.82466 10.10886,1.66253 13.73703,2.14294 20.23508,2.67936 3.06363,0.2529 36.06995,0.59896 77.49965,0.81256 44.46771,0.22926 83.05861,0.64602 100.55191,1.0859 37.6025,0.94553 58.5304,1.04209 63.0617,0.29094 1.907,-0.31613 6.8804,-1.32706 11.052,-2.2465 9.1338,-2.01314 20.6466,-4.01545 28.6053,-4.97503 29.6457,-3.57435 57.8158,-11.61448 77.3643,-22.08081 10.5834,-5.66638 27.5536,-17.9836 34.9191,-25.34476 5.8223,-5.81883 8.3898,-9.51129 12.6015,-18.12278 5.5084,-11.26268 9.1511,-24.36432 9.2179,-33.15333 0.021,-2.80016 0.2166,-5.09184 0.434,-5.09261 0.2174,-7.6e-4 1.2271,0.48609 2.2438,1.0819 1.3701,0.80288 2.1229,1.67233 2.9086,3.35895 1.9108,4.10178 2.2555,6.46426 2.2287,15.27807 -0.021,6.84842 -0.1898,9.00104 -1.0032,12.78569 -2.0353,9.46847 -5.7772,17.90198 -12.1354,27.35086 -13.0036,19.32444 -32.1376,35.34472 -54.4629,45.60018 -20.9883,9.64127 -39.1927,13.60612 -92.7365,20.19769 -23.5465,2.89872 -36.4574,3.5182 -42.4745,2.038 -5.6485,-1.38954 -20.8542,-1.67181 -77.1476,-1.43214 -49.5004,0.21074 -58.38195,0.38761 -82.56525,1.64419 -4.88673,0.25392 -34.58097,0.56372 -65.98719,0.68845 l -57.10223,0.22677 z"
     id="path2643"
     transform="scale(0.75)" />
  <path
     style="fill:#ffffff;stroke-width:0.433413"
     d="m 1060.346,1091.1098 c -6.194,-0.6061 -9.6734,-2.2698 -13.5866,-6.4965 -2.889,-3.1205 -5.4328,-8.1081 -6.8506,-13.432 -1.2838,-4.8204 -1.3845,-14.275 -0.1986,-18.6368 2.3692,-8.714 8.8474,-15.5377 20.1721,-21.248 6.7273,-3.3922 11.0521,-4.7067 19.9937,-6.0772 l 5.702,-0.8739 1.8245,1.0692 c 6.2821,3.6816 19.0577,23.1026 20.8403,31.6808 0.8805,4.237 0.8052,5.8727 -0.4413,9.5858 -3.3052,9.8461 -11.0627,20.2982 -17.36,23.3901 l -2.5738,1.2637 -11.9188,0.068 c -6.5554,0.037 -13.5767,-0.095 -15.6029,-0.2929 z m 20.171,-10.6166 c 3.5744,-0.9086 8.3264,-3.3085 10.7159,-5.4118 3.8124,-3.3558 5.4267,-9.0625 4.9361,-17.4499 -0.3272,-5.594 -1.1469,-7.3591 -5.3737,-11.5712 -9.6282,-9.5949 -22.1078,-10.1438 -30.8617,-1.3576 -6.0118,6.034 -8.6782,14.4627 -6.7999,21.4944 1.8001,6.7387 7.6635,12.2739 15.1327,14.2857 3.0275,0.8154 9.0635,0.8205 12.2506,0.01 z"
     id="path2645"
     transform="scale(0.75)" />
  <path
     style="fill:#ffffff;stroke-width:0.433413"
     d="m 1077.4658,994.90056 -2.5733,-2.60048 h 3.7246 c 4.1119,0 6.4335,0.33585 6.4335,0.93069 0,0.7199 -3.5706,4.27027 -4.2946,4.27027 -0.3943,0 -1.8748,-1.17022 -3.2902,-2.60048 z"
     id="path2647"
     transform="scale(0.75)" />
  <path
     style="fill:#ffffff;stroke-width:0.433413"
     d="m 1070.2592,1013.6882 c -0.3819,-0.4598 -0.6419,-2.1272 -0.7264,-4.6592 l -0.1317,-3.9432 1.5369,1.7336 c 2.0425,2.3041 4.144,5.4244 4.144,6.1528 0,1.3255 -3.8425,1.8959 -4.8228,0.716 z"
     id="path2649"
     transform="scale(0.75)" />
  <path
     style="fill:#ffffff;stroke-width:0.433413"
     d="m 1027.0063,1019.3422 c -2.6229,-2.8699 -8.2721,-11.2252 -9.5636,-14.145 -1.1842,-2.6771 -2.7234,-9.7662 -2.4002,-11.05426 0.3705,-1.47605 1.8666,-1.84286 7.5164,-1.84286 h 5.0644 l 0.025,6.60955 c 0.019,5.06607 0.2973,8.24207 1.1919,13.60067 1.246,7.464 1.3969,9.2619 0.7771,9.2619 -0.2144,0 -1.3893,-1.0935 -2.6108,-2.43 z"
     id="path2651"
     transform="scale(0.75)" />
  <path
     style="fill:#ffffff;stroke-width:0.433413"
     d="m 1036.6863,997.71065 c -0.9973,-2.36162 -1.2896,-5.24361 -0.6144,-6.05719 0.715,-0.86153 2.56,-0.83766 2.8958,0.0375 0.3037,0.79134 -0.5726,6.16125 -1.1607,7.11279 -0.302,0.48855 -0.5584,0.23846 -1.1207,-1.09307 z"
     id="path2653"
     transform="scale(0.75)" />
  <path
     style="fill:#ffffff;stroke-width:0.433413"
     d="m 1043.6707,1023.094 c -0.8819,-1.7054 -0.8886,-5.5959 -0.01,-5.933 1.809,-0.6942 5.8502,2.3297 5.8502,4.3775 0,1.3851 -1.9078,2.8342 -3.7314,2.8342 -1.1644,0 -1.5766,-0.25 -2.1086,-1.2787 z"
     id="path2655"
     transform="scale(0.75)" />
  <path
     style="fill:#ffffff;stroke-width:0.433413"
     d="m 298.53485,923.36891 c -1.9873,-0.61414 -2.18755,-1.2644 -0.76596,-2.4872 1.1415,-0.98188 1.48743,-1.0458 4.51194,-0.83375 3.64138,0.25529 6.52625,0.98387 6.52625,1.64821 0,1.34343 -7.42526,2.55257 -10.27223,1.67274 z"
     id="path2657"
     transform="scale(0.75)" />
  <path
     style="fill:#ffffff;stroke-width:0.433413"
     d="m 299.7054,897.76033 c -1.05085,-0.42099 -1.05739,-0.44882 -0.21671,-0.92265 0.99854,-0.56281 6.36352,-0.69839 8.1265,-0.20536 1.44434,0.40391 1.53878,0.98956 0.21671,1.34387 -1.52525,0.40875 -6.92545,0.26531 -8.1265,-0.21586 z"
     id="path2659"
     transform="scale(0.75)" />
  <path
     style="fill:#ffffff;stroke-width:0.433413"
     d="m 339.14602,902.86746 c -1.31108,-0.2977 -2.85379,-0.79948 -3.42826,-1.11507 -0.95085,-0.52237 -0.97657,-0.61182 -0.28687,-0.9978 1.1761,-0.65817 7.89157,-0.24862 8.66841,0.52866 1.57471,1.57562 -1.15133,2.44749 -4.95328,1.58421 z"
     id="path2661"
     transform="scale(0.75)" />
  <path
     style="fill:#ffffff;stroke-width:0.433413"
     d="m 338.4959,924.65827 c -1.66864,-0.16449 -3.81404,-0.62798 -4.76755,-1.02997 -1.67623,-0.70669 -1.70494,-0.75285 -0.86683,-1.39342 1.22074,-0.93302 10.21136,-0.60478 12.2454,0.44707 2.31352,1.19636 1.82739,1.69481 -2.06018,2.11244 -0.83432,0.0896 -2.8822,0.0284 -4.55084,-0.13612 z"
     id="path2663"
     transform="scale(0.75)" />
  <path
     style="fill:#ffffff;stroke-width:0.433413"
     d="m 352.47496,997.65362 c -0.11698,-0.20311 -0.35211,-1.14036 -0.5225,-2.08278 -0.56821,-3.14258 -1.80806,-4.88909 -4.95742,-6.98327 -3.13734,-2.08619 -3.9483,-3.2309 -3.9483,-5.57321 0,-2.44731 0.57118,-2.61767 9.30318,-2.77481 4.32957,-0.0779 8.54213,0.0361 9.36124,0.25345 1.31351,0.34848 1.4741,0.54426 1.36045,1.65861 -0.0709,0.69492 -1.08019,3.21385 -2.24294,5.59763 -1.69916,3.48346 -2.70556,4.91701 -5.12756,7.3039 -1.6574,1.63337 -3.10916,2.80358 -3.22615,2.60048 z"
     id="path2665"
     transform="scale(0.75)" />
  <path
     style="fill:#ffffff;stroke-width:0.433413"
     d="m 311.03815,986.02226 c -1.70947,-1.94698 -1.72059,-2.67672 -0.0464,-3.04444 2.08288,-0.45748 3.53355,0.72291 3.36595,2.73882 -0.18725,2.25209 -1.50409,2.37333 -3.31956,0.30562 z"
     id="path2667"
     transform="scale(0.75)" />
  <path
     style="fill:#ffffff;stroke-width:0.433413"
     d="m 336.54554,1006.3019 c -1.1282,-0.4032 -1.73366,-1.5427 -1.73366,-3.2629 0,-1.976 0.70447,-2.401 2.46799,-1.489 0.68529,0.3543 1.92187,0.7494 2.74795,0.8778 0.82609,0.1285 2.25402,0.3529 3.17318,0.4988 l 1.67121,0.2653 -1.44899,1.069 c -0.79694,0.588 -2.41329,1.3554 -3.59188,1.7055 -2.30271,0.6838 -2.30947,0.6845 -3.2858,0.3355 z"
     id="path2669"
     transform="scale(0.75)" />
  <path
     style="fill:#ffffff;stroke-width:0.433413"
     d="m 297.79177,1079.3996 c -7.6341,-1.2018 -17.07236,-4.7838 -23.61199,-8.9612 -4.67808,-2.9882 -9.2588,-8.1511 -11.90069,-13.4129 -2.09711,-4.1769 -2.93815,-8.1028 -3.18833,-14.8829 -0.36549,-9.9051 0.77971,-14.9964 4.48066,-19.9197 3.62086,-4.8168 12.28199,-11.0462 18.35704,-13.203 3.48729,-1.2381 4.03785,-1.3084 9.97549,-1.2748 6.41193,0.036 12.07832,0.7611 18.22809,2.3312 8.91792,2.277 11.55951,4.815 17.36052,16.6801 4.37908,8.9568 5.67265,13.2908 5.6919,19.0702 0.012,3.587 -0.1871,4.9319 -1.15465,7.8015 -2.06071,6.1117 -7.59278,15.0898 -12.1783,19.7645 -2.88205,2.9381 -5.09205,4.3374 -8.44395,5.3462 -2.87814,0.8663 -10.08796,1.2162 -13.61579,0.6608 z m 4.74811,-14.0877 c 3.32139,-0.8595 6.77017,-2.9339 8.97678,-5.3993 6.11094,-6.8278 6.16371,-17.2463 0.13491,-26.6326 -4.29358,-6.6847 -11.52344,-9.7293 -21.94463,-9.2411 -3.52702,0.1653 -4.49945,0.3824 -6.5012,1.452 -3.62588,1.9373 -7.33424,5.8793 -9.32302,9.9103 -1.59972,3.2425 -1.69908,3.6745 -1.69908,7.3879 0,3.6905 0.10554,4.1578 1.64155,7.2682 1.99454,4.0388 5.58767,8.6421 8.44883,10.824 5.59968,4.2704 13.88512,6.0818 20.26586,4.4306 z"
     id="path2671"
     transform="scale(0.75)" />
  <path
     style="fill:#ffffff;stroke-width:1.17964"
     d="m 440.00587,838.09642 c -18.14272,-2.84843 -46.68654,-11.18652 -63.70058,-18.6079 -4.54162,-1.98101 -11.35205,-4.77952 -15.13429,-6.2189 -8.44455,-3.21369 -32.05581,-16.6423 -45.76791,-26.02994 -5.59772,-3.83233 -14.90114,-11.86456 -20.67427,-17.84939 -18.03634,-18.69772 -44.7056,-51.89299 -49.91138,-62.12476 -6.14007,-12.06809 -16.49432,-48.44648 -19.10902,-67.13718 -1.0632,-7.6001 -1.06661,-11.91992 -0.0145,-18.32945 0.75711,-4.61225 2.18563,-17.78635 3.17449,-29.2758 2.67876,-31.1243 7.54803,-44.92886 30.26988,-85.81612 24.04426,-43.2669 27.58298,-48.02354 50.16294,-67.42743 23.18276,-19.9219 36.46281,-27.58097 73.27141,-42.2582 28.87181,-11.51247 40.50857,-15.61325 53.30445,-18.7844 16.24538,-4.02602 66.26321,-9.77674 91.05789,-10.46922 l 22.04893,-0.6158 12.39396,4.41574 c 6.81668,2.42865 13.17322,5.28442 14.12565,6.34614 4.94043,5.50733 11.98101,22.16713 20.25836,47.93637 10.7499,33.46689 19.95588,58.66133 29.78779,81.52164 3.93649,9.15277 7.51733,18.56082 7.95744,20.9068 0.94065,5.01406 -0.0836,5.66788 -12.34766,7.88154 -4.17385,0.75338 -17.39983,5.35566 -29.39107,10.2273 -34.10011,13.8537 -91.46169,34.47999 -111.90392,40.2388 l -8.50661,2.39642 -4.03932,-6.08926 c -2.22162,-3.3491 -5.62342,-10.17118 -7.55955,-15.16017 -8.01684,-20.65767 -11.68353,-23.85222 -27.4523,-23.91743 -8.5238,-0.0353 -10.95354,0.41871 -15.92514,2.97537 -7.5342,3.87448 -13.30944,12.03031 -17.67253,24.9573 -2.83806,8.4086 -3.37554,12.1647 -3.8469,26.88372 -0.53743,16.78207 -0.47614,17.32384 3.20305,28.31137 4.59804,13.73158 16.75254,39.26117 24.09823,50.61643 14.79092,22.86443 34.77154,34.30374 57.33089,32.82313 15.1932,-0.99716 50.61742,-13.0435 63.48985,-21.5903 8.29147,-5.50523 11.17346,-11.64446 11.49044,-24.47707 0.12525,-5.07041 0.69751,-9.62935 1.27169,-10.13098 0.57419,-0.50164 4.49442,-2.11401 8.71163,-3.58303 4.21721,-1.46903 19.61152,-8.25778 34.20957,-15.08612 29.0582,-13.59218 41.13642,-18.68792 50.13472,-21.15157 l 5.8982,-1.61488 4.34893,4.80308 c 6.40848,7.07768 15.48272,25.71548 20.36432,41.82671 2.359,7.78563 7.44996,25.92443 11.31326,40.30844 3.8633,14.38403 8.58167,30.55407 10.48528,35.93344 1.90361,5.37938 3.09939,10.41359 2.65729,11.18715 -3.21996,5.63399 -24.40777,30.57381 -30.44974,35.84187 -15.95719,13.91322 -41.70692,28.45285 -62.72131,35.41568 -25.26853,8.37238 -60.73626,16.12062 -86.34829,18.86352 -15.60074,1.67076 -75.7615,2.47486 -84.34429,1.12734 z m 65.08774,-15.89156 c 3.7269,-0.97072 9.18613,-1.77328 12.13164,-1.78345 13.34243,-0.046 43.66772,-8.50952 83.21171,-23.22356 30.56005,-11.37116 41.63012,-16.55297 51.97038,-24.32692 9.34886,-7.0286 18.21823,-16.58659 18.21823,-19.63269 0,-1.3324 -0.7727,-7.32707 -1.7171,-13.32151 -0.94441,-5.99442 -2.30097,-17.42208 -3.0146,-25.39478 -1.32681,-14.82342 -2.67527,-23.00115 -7.0437,-42.71674 -4.10174,-18.51192 -4.48726,-19.56022 -7.73789,-21.04132 -4.56149,-2.07835 -18.86778,-1.6298 -29.44179,0.92309 -11.235,2.71249 -32.43564,10.23798 -34.47387,12.23705 -0.79416,0.77889 -2.22365,7.35067 -3.17663,14.60392 -0.953,7.25326 -2.53217,14.73372 -3.50929,16.62325 -4.86762,9.41295 -23.25995,19.29913 -47.31324,25.43163 -9.13372,2.32869 -57.36968,9.02476 -65.01094,9.02476 -7.8734,0 -18.92337,-2.98398 -24.39304,-6.58719 -5.69061,-3.74876 -21.71397,-17.8046 -31.0321,-27.22166 -10.69859,-10.81217 -19.74975,-24.97379 -26.26729,-41.09832 -14.8192,-36.66295 -18.47201,-53.30241 -15.14934,-69.00896 11.02445,-52.1137 11.99684,-54.31249 28.36512,-64.13966 8.25524,-4.95627 15.79335,-6.15629 27.14755,-4.32176 18.37643,2.96914 40.43453,19.5564 52.11912,39.19257 6.30206,10.59075 6.3282,10.60369 16.00016,7.92345 10.6895,-2.9622 41.20191,-13.83069 59.95692,-21.35657 8.15798,-3.27359 19.87565,-7.69017 26.03928,-9.81464 14.59269,-5.02979 19.32187,-7.11111 21.14251,-9.30485 1.7789,-2.14345 0.3342,-6.94733 -11.74005,-39.0378 -4.39408,-11.67844 -12.0901,-32.91196 -17.10225,-47.18561 -14.32403,-40.79207 -17.12306,-45.81687 -27.57642,-49.50503 -11.37691,-4.014 -27.35805,-2.30094 -83.27765,8.92679 -49.30659,9.89995 -50.33609,10.15329 -68.63713,16.89065 -21.70974,7.99224 -30.40666,12.67613 -47.8334,25.76155 -30.60732,22.9825 -69.77875,74.21407 -79.44006,103.89814 -1.09084,3.35155 -4.52196,13.00154 -7.62473,21.44442 -8.4375,22.95915 -9.66434,28.63385 -9.56036,44.22115 0.1261,18.90322 2.40949,43.85322 4.91682,53.7247 5.34103,21.02789 16.06013,44.90532 28.64613,63.81098 20.49539,30.78647 43.24825,51.29505 73.71327,66.44239 20.21822,10.05258 37.46735,15.17135 69.84042,20.72549 10.05644,1.72534 24.91991,4.64726 33.02993,6.49313 8.11003,1.84588 16.60344,3.60002 18.87425,3.89811 6.34227,0.83253 19.22639,-0.21469 26.74943,-2.1742 z"
     id="path2673"
     transform="scale(0.75)" />
  <path
     style="fill:#ffffff;stroke-width:1.17964"
     d="m 852.97641,859.2497 c -0.3052,-0.90812 -1.66516,-15.18751 -3.02214,-31.73196 -3.86472,-47.11937 -10.0718,-88.11109 -16.42574,-108.47629 -1.30709,-4.18936 -2.16582,-7.82774 -1.90829,-8.08527 0.25753,-0.25753 5.41176,0.7005 11.45383,2.12896 13.68226,3.23474 30.0807,4.28059 38.78379,2.47352 15.04107,-3.12304 29.58746,-13.20834 35.36634,-24.52018 3.8542,-7.54439 4.05766,-18.66895 0.43108,-23.57042 -6.62689,-8.95649 -29.84803,-21.737 -48.85013,-26.88626 -55.75857,-15.10965 -119.69303,-43.19942 -135.63128,-59.58996 -6.73888,-6.93012 -16.13614,-24.88034 -22.24218,-42.486 -2.58772,-7.46122 -5.52799,-15.48943 -6.53394,-17.84046 -4.53698,-10.6035 -6.05977,-45.57628 -2.62231,-60.2246 2.89508,-12.33704 10.0151,-32.74706 15.35904,-44.02772 11.26113,-23.77144 38.8669,-55.24533 67.19644,-76.612 l 10.25206,-7.73229 32.09761,0.0864 32.09762,0.0864 -10.39088,2.85091 c -5.71498,1.56799 -14.47381,4.48424 -19.46406,6.48054 -31.6516,12.6619 -84.84916,63.24637 -96.29136,91.56148 -3.34138,8.26865 -7.01702,25.25776 -8.97203,41.46948 -3.05694,25.34942 6.64149,71.87073 18.27778,87.67464 5.24139,7.11862 8.68821,9.66344 27.8184,20.53866 35.08049,19.94269 61.55007,30.92711 100.75906,41.81327 19.3648,5.37653 44.28072,18.21176 54.937,28.30034 10.13757,9.59751 15.38242,24.5629 12.98546,37.05203 -1.72254,8.97506 -9.62627,25.67173 -13.65085,28.83746 -1.66396,1.30887 -6.57983,3.548 -10.92414,4.97585 -4.34432,1.42785 -14.53424,5.66403 -22.64427,9.41375 -8.11003,3.74973 -17.87002,7.77788 -21.68887,8.95146 l -6.94336,2.13375 0.67913,17.72352 c 0.75096,19.59835 5.78104,59.46045 8.58858,68.06236 0.98957,3.03188 2.56927,6.1516 3.51045,6.93272 1.28636,1.06757 10.13028,1.26411 35.61948,0.79155 33.63328,-0.62355 34.05365,-0.66255 51.84229,-4.80926 28.44569,-6.63097 52.85608,-15.77456 71.18848,-26.66567 16.1595,-9.60015 54.9642,-40.43583 64.4143,-51.18593 5.0495,-5.74424 19.1722,-32.31604 22.0367,-41.46211 2.6724,-8.53283 5.1711,-21.86478 6.6409,-35.43215 1.5532,-14.33763 0.1593,-26.37343 -4.0067,-34.59454 -4.3321,-8.5491 -15.5209,-18.18408 -28.1803,-24.26687 -14.1249,-6.78698 -21.5766,-8.2967 -68.0424,-13.78555 -5.905,-0.69754 -20.9382,-0.87118 -36.56889,-0.42242 -21.61699,0.62063 -28.8402,0.40313 -38.92813,-1.17219 -6.81242,-1.06381 -19.86501,-2.41726 -29.00576,-3.00764 -17.10815,-1.10501 -40.59883,-6.17873 -62.23771,-13.44268 -16.64203,-5.58654 -28.86267,-15.78883 -35.85195,-29.93069 -4.30108,-8.70265 -4.43246,-9.34701 -4.36707,-21.41997 0.0834,-15.39216 1.88198,-24.14822 7.20123,-35.05759 8.30184,-17.02637 29.23191,-38.79515 44.68734,-46.47806 14.20734,-7.06249 24.7375,-8.42514 71.30232,-9.22688 l 41.86312,-0.72078 1.78357,-3.53892 c 2.5488,-5.05726 2.29005,-43.39825 -0.42193,-62.52094 -1.10417,-7.78563 -2.33557,-21.45471 -2.73647,-30.37574 l -0.72891,-16.22006 h 9.02855 c 8.95399,0 9.02859,0.0255 9.02859,3.09027 0,1.69965 1.3265,11.45303 2.9478,21.67419 5.174,32.61853 8.6206,114.7205 5.0147,119.45871 -1.342,1.76354 -2.1104,1.7818 -8.5523,0.20326 -10.0477,-2.46207 -51.37735,-4.25775 -66.82981,-2.90359 -30.67953,2.68855 -62.75916,10.82604 -76.24882,19.34169 -10.70981,6.76081 -16.06736,18.67162 -16.02702,35.63094 0.0225,9.48082 0.44454,11.59766 3.69774,18.54958 4.65415,9.9457 11.74451,16.86569 23.52497,22.95972 26.06702,13.48443 47.75357,16.29948 138.18274,17.93694 54.3395,0.98396 55.2972,1.04329 75.0953,4.65211 11.0297,2.0105 22.5419,4.48102 25.5827,5.49006 8.1859,2.7163 18.6944,9.9645 28.6541,19.76394 10.4214,10.25373 14.2583,17.63805 16.5221,31.79823 0.8533,5.33729 2.2359,12.71131 3.0724,16.38672 1.3221,5.80934 1.2468,7.96737 -0.5762,16.51496 -5.6169,26.33704 -15.4825,48.74638 -33.0916,75.16667 -11.27,16.90932 -21.3675,28.87598 -32.4958,38.51147 -8.4215,7.29178 -40.1634,30.66293 -51.2427,37.72943 -12.2886,7.83771 -30.6304,15.92208 -40.41976,17.81544 -5.05823,0.97832 -12.38182,2.52129 -16.27463,3.42882 -13.04268,3.04067 -32.8095,4.31326 -61.93112,3.98716 -15.89566,-0.17801 -37.24805,0.11938 -47.44979,0.66086 -15.48007,0.82163 -18.64039,0.71135 -19.10349,-0.66665 z"
     id="path2675"
     transform="scale(0.75)" />
  <path
     style="fill:#ffffff;stroke-width:0.477033"
     d="m 764.92258,979.29728 c -7.56709,-0.42939 -16.15701,-1.22776 -22.25728,-2.06866 -7.33486,-1.01109 -17.14877,-1.67677 -35.70224,-2.42169 -6.82158,-0.27389 -15.51551,-0.82321 -19.31984,-1.22071 -5.75023,-0.60082 -22.60777,-0.80005 -99.93844,-1.18113 -76.35981,-0.37628 -99.95548,-0.67193 -110.07539,-1.37921 -0.19677,-0.0138 -0.35777,-4.94678 -0.35777,-10.9623 v -10.93729 l 2.50442,0.20929 c 11.79583,0.98574 38.77206,2.78014 56.40917,3.75222 25.09352,1.38305 41.11305,1.70433 90.63629,1.81775 54.12722,0.12397 55.65062,0.0678 68.45425,-2.52574 5.78839,-1.17249 7.77462,-1.11496 25.9983,0.75309 6.29684,0.64546 14.66877,1.36233 18.60429,1.59303 7.19443,0.42174 7.96091,0.60717 12.16434,2.94286 3.43691,1.90976 13.58367,1.16627 36.79102,-2.69582 14.59125,-2.42822 14.52919,-2.42466 32.6173,-1.8739 5.24736,0.15978 17.5906,0.11689 27.4294,-0.0953 21.97241,-0.4739 29.08191,-0.17124 41.02485,1.74647 5.11618,0.82152 10.05347,1.5978 10.97176,1.72507 7.32434,1.01511 20.76616,1.2681 87.05854,1.63852 40.86965,0.22836 88.34185,0.75811 106.13985,1.18443 17.7099,0.4242 36.7616,0.70852 42.3372,0.63182 l 10.1374,-0.13946 -5e-4,8.46734 -4e-4,8.46734 -7.5133,-0.01 c -4.7693,-0.006 -8.6457,-0.2618 -10.614,-0.69958 -5.9977,-1.33397 -30.9869,-1.80493 -79.1875,-1.49243 -43.5315,0.28224 -56.58738,0.56698 -80.61859,1.75824 -6.02951,0.29889 -43.65942,0.70365 -85.86596,0.92362 -60.91675,0.31747 -76.75739,0.53006 -83.71931,1.12356 -8.63769,0.73637 -28.33985,1.29583 -34.10786,0.96854 z"
     id="path970"
     transform="scale(0.75)" />
  <path
     style="fill:#ffffff;stroke-width:0.477033"
     d="m 504.22399,971.91656 c -11.5442,-0.19488 -23.35077,-0.59692 -26.23682,-0.89344 -15.31267,-1.57325 -22.70742,-1.99631 -46.0337,-2.6336 -14.0367,-0.38349 -33.19445,-0.94507 -42.57278,-1.24794 -23.29936,-0.75244 -32.98551,-0.44802 -39.23839,1.23322 -8.6093,2.31482 -19.45608,2.20162 -48.18035,-0.5028 -14.99134,-1.41146 -28.72279,-2.37727 -43.42907,-3.05463 -31.73183,-1.46155 -76.98815,-7.55404 -99.43703,-13.38641 -8.16728,-2.12191 -13.60752,-4.91885 -34.59021,-17.78352 C 92.266226,913.88118 70.276797,897.07694 51.260494,877.67379 40.783799,866.98397 37.441465,861.96526 36.573822,855.62092 c -0.874721,-6.39609 1.250497,-11.80478 7.005138,-17.82809 5.113975,-5.35274 5.157556,-5.37007 13.505435,-5.37007 3.847756,0 7.157499,0.16133 7.354985,0.3585 0.197486,0.19718 -0.421722,2.34382 -1.376017,4.77033 -1.945381,4.94657 -3.195709,9.42607 -3.195709,11.44915 0,2.03464 1.375363,8.2815 2.463855,11.19076 3.162376,8.45221 15.227102,20.78973 35.22176,36.01815 11.797791,8.98548 17.187561,11.98584 25.044241,13.9415 2.62368,0.65308 7.02431,1.9524 9.77918,2.88738 2.75486,0.93498 11.44879,3.40412 19.31984,5.48697 13.7155,3.62941 16.89509,4.59843 24.32868,7.41449 7.86819,2.9807 35.78844,9.38073 55.09733,12.62971 26.06578,4.38592 29.13517,4.57628 84.67337,5.2515 38.92485,0.47324 50.57318,0.80252 67.26167,1.90138 11.14462,0.73383 17.13209,1.3943 21.70501,2.39426 8.59569,1.87962 25.93161,2.71396 39.59374,1.90558 20.75575,-1.22811 29.35822,-1.15895 51.04255,0.4104 19.22806,1.39158 33.3655,2.27981 54.38177,3.4167 5.11618,0.27677 21.16238,0.63013 35.65822,0.78526 l 26.35608,0.28205 v 8.75757 8.75758 l -43.29075,-0.0805 c -23.80992,-0.0443 -52.73601,-0.24 -64.28021,-0.43487 z"
     id="path972"
     transform="scale(0.75)" />
  <path
     style="fill:#ffffff;stroke-width:0.477033"
     d="m 296.08415,1079.0456 c -7.63318,-1.383 -18.1106,-5.7621 -23.78872,-9.9427 -5.77385,-4.2512 -10.64942,-11.6107 -12.37262,-18.676 -0.99047,-4.0611 -1.15838,-15.8895 -0.27982,-19.7128 1.39522,-6.0717 4.45756,-10.1983 11.51124,-15.5117 8.46897,-6.3796 12.619,-7.7205 22.69816,-7.3336 7.47309,0.2868 13.09546,1.1773 18.78824,2.9756 6.70551,2.1183 9.55833,5.1032 14.57894,15.2538 4.26351,8.6199 5.58881,12.7775 5.87672,18.4358 0.19569,3.8462 0.0598,5.176 -0.82763,8.0976 -2.90345,9.559 -11.53771,21.6544 -17.66625,24.7481 -4.70882,2.377 -11.31346,2.9712 -18.51826,1.6659 z m 9.45555,-14.8563 c 3.79405,-1.7956 7.15073,-5.05 8.90317,-8.6319 1.72542,-3.5266 2.12583,-9.9561 0.88711,-14.2445 -1.87293,-6.484 -5.94642,-12.0824 -10.65155,-14.6392 -5.3975,-2.9329 -16.59101,-3.6001 -21.30657,-1.27 -3.40979,1.6849 -7.4658,5.9271 -9.37672,9.8072 -1.34938,2.7399 -1.63622,3.9003 -1.7763,7.1863 -0.14435,3.3862 -0.004,4.274 1.02911,6.5316 5.09673,11.1328 14.03611,17.1854 24.89774,16.8576 3.64321,-0.11 4.7628,-0.3518 7.39401,-1.5971 z"
     id="path974"
     transform="scale(0.75)" />
  <path
     style="fill:#ffffff;stroke-width:0.477033"
     d="m 311.27739,986.20584 c -1.84415,-1.84415 -1.72958,-2.98901 0.31902,-3.18791 2.02531,-0.19663 3.4327,1.69556 2.60778,3.50606 -0.69581,1.52715 -1.12854,1.48011 -2.9268,-0.31815 z"
     id="path976"
     transform="scale(0.75)" />
  <path
     style="fill:#ffffff;stroke-width:0.477033"
     d="m 351.93372,995.55925 c -0.70815,-3.37614 -1.94866,-5.09058 -5.17818,-7.15648 -3.07402,-1.96643 -4.44333,-4.28275 -3.73032,-6.3102 0.39486,-1.12278 0.81804,-1.35699 3.07196,-1.70019 3.63524,-0.55353 16.07818,-0.17293 16.76388,0.51277 0.40772,0.40772 0.27295,1.29825 -0.53707,3.54884 -1.5314,4.2549 -3.81395,7.81929 -7.04448,11.00053 l -2.79122,2.74863 z"
     id="path978"
     transform="scale(0.75)" />
  <path
     style="fill:#ffffff;stroke-width:0.477033"
     d="m 335.71205,1005.7696 c -0.72602,-0.7465 -0.8,-4.7156 -0.0879,-4.7156 0.27961,0 0.95883,0.241 1.50937,0.5357 0.55054,0.2946 2.52208,0.7923 4.3812,1.1059 l 3.38021,0.5702 -2.03912,1.3504 c -2.32094,1.537 -6.16684,2.158 -7.14376,1.1534 z"
     id="path980"
     transform="scale(0.75)" />
  <path
     style="fill:#ffffff;stroke-width:0.141177"
     d="m 302.53801,898.51085 c -0.70134,-0.054 -1.68518,-0.20323 -2.18632,-0.33162 -2.04296,-0.52338 -2.05778,-1.17388 -0.0399,-1.74938 1.17823,-0.33602 6.24796,-0.33602 7.42618,0 0.95265,0.27169 1.51047,0.60121 1.51047,0.89229 0,0.77147 -3.67493,1.42246 -6.71047,1.18871 z"
     id="path988"
     transform="scale(0.75)" />
  <path
     style="fill:#ffffff;stroke-width:0.141177"
     d="m 299.70309,923.79263 c -1.8382,-0.26939 -3.01938,-0.95352 -3.01938,-1.74878 0,-0.89867 1.65403,-2.03387 3.44397,-2.36368 1.2292,-0.22649 3.16555,-0.008 5.78774,0.65211 3.08464,0.77689 3.55519,1.14092 2.57262,1.99029 -1.33243,1.15179 -5.82591,1.90373 -8.78495,1.47006 z"
     id="path990"
     transform="scale(0.75)" />
  <path
     style="fill:#ffffff;stroke-width:0.141177"
     d="m 338.54273,924.90703 c -2.90199,-0.31431 -5.52063,-1.13416 -6.1408,-1.92258 l -0.28889,-0.36727 0.2951,-0.31412 c 0.71029,-0.75606 3.94655,-1.08935 7.54636,-0.77715 3.63786,0.3155 5.3902,0.77742 6.31767,1.66534 0.71139,0.68106 0.40263,1.13283 -1.04999,1.53634 -0.94308,0.26197 -4.92885,0.36904 -6.67945,0.17944 z"
     id="path992"
     transform="scale(0.75)" />
  <path
     style="fill:#ffffff;stroke-width:0.141177"
     d="m 339.66447,903.19759 c -2.5815,-0.46876 -4.74945,-1.34948 -4.83791,-1.96538 -0.17414,-1.21261 6.43288,-1.5221 9.03352,-0.42315 0.85685,0.36208 1.11625,0.89351 0.78016,1.59829 -0.12513,0.26239 -0.39806,0.58884 -0.60652,0.72542 -0.54976,0.36022 -2.57682,0.39029 -4.36925,0.0648 z"
     id="path994"
     transform="scale(0.75)" />
  <path
     style="fill:#ffffff;stroke-width:0.141177"
     d="m 724.69215,819.67554 c -1.26563,-0.26034 -2.33644,-0.7641 -2.96917,-1.39683 -0.88766,-0.88766 -1.0138,-1.24975 -1.0138,-2.91027 0,-1.25515 0.0606,-1.65869 0.39508,-2.63278 1.16972,-3.40615 4.08204,-6.29988 6.34034,-6.29988 1.13317,0 1.47644,0.70166 2.36712,4.83852 0.32599,1.51413 0.87629,3.73241 1.22289,4.92951 0.34659,1.19711 0.61105,2.36612 0.58769,2.59782 -0.0268,0.2658 -0.18949,0.53061 -0.44084,0.71758 -0.3665,0.27261 -0.60367,0.2986 -2.96472,0.32488 -1.74891,0.0195 -2.87158,-0.0342 -3.52459,-0.16855 z"
     id="path996"
     transform="scale(0.75)" />
  <path
     style="fill:#ffffff;stroke-width:0.141177"
     d="m 719.29741,854.32163 c -1.86354,-0.77403 -4.29564,-1.85756 -5.40468,-2.40785 -4.78666,-2.37509 -8.0796,-5.22989 -8.0772,-7.00249 10e-4,-0.92472 1.00246,-1.80699 3.88184,-3.42068 3.016,-1.69025 7.15695,-3.56098 8.77321,-3.9634 0.71215,-0.17732 0.74744,-0.1707 1.8353,0.34441 2.66487,1.26182 6.0771,3.96766 6.89232,5.46549 0.74414,1.36724 0.6314,3.14156 -0.33505,5.27303 -0.42025,0.92683 -3.71917,6.63206 -4.01893,6.95041 -0.12143,0.12896 -0.95194,-0.16114 -3.54681,-1.23892 z m -2.36083,-3.87868 c 0.94865,-0.66446 -0.32692,-2.88399 -2.03159,-3.53501 -0.73312,-0.27998 -0.95508,-0.21281 -1.26276,0.38219 -0.19778,0.38246 -0.2083,0.54158 -0.067,1.01319 0.23867,0.7966 1.34711,1.8632 2.21253,2.129 0.8712,0.26758 0.78313,0.26677 1.14882,0.0106 z m 6.56917,-0.10251 c 0.33377,-0.2187 0.37992,-0.34032 0.37992,-1.00128 0,-0.5482 -0.0862,-0.87861 -0.31765,-1.2177 -0.73267,-1.07337 -2.19316,-1.2935 -2.95143,-0.44486 -0.36053,0.40351 -0.68132,1.21675 -0.68309,1.73178 -9.9e-4,0.30351 0.52853,0.96365 0.90107,1.12322 0.49905,0.21376 2.24375,0.0889 2.67118,-0.19116 z m -3.78999,-5.74261 c 0.32058,-0.35423 0.43074,-1.32944 0.23308,-2.06346 -0.34076,-1.26551 -1.52411,-1.65219 -2.32229,-0.75887 -0.3395,0.37996 -0.39609,0.54554 -0.33701,0.98603 0.12847,0.95776 1.15394,2.10971 1.88011,2.112 0.16267,5.1e-4 0.40842,-0.12355 0.54611,-0.2757 z"
     id="path998"
     transform="scale(0.75)" />
  <path
     style="fill:#ffffff;stroke-width:0.141177"
     d="m 781.55652,832.71942 c -10.97268,-1.33031 -19.1457,-7.4584 -24.64901,-18.48169 -5.02459,-10.0644 -4.726,-14.88115 1.43079,-23.08116 1.6968,-2.25991 2.4352,-3.14444 6.09516,-7.30145 2.74848,-3.12173 3.93444,-4.49396 9.73449,-11.26335 5.8579,-6.83689 8.00652,-8.1241 10.17552,-6.09598 1.73399,1.62138 2.19983,2.9198 3.76712,10.49994 0.77461,3.74639 0.93851,4.15656 2.47267,6.18844 2.38791,3.16256 5.82163,6.70599 12.82042,13.23 2.69825,2.51521 4.90545,4.6165 4.9049,4.66954 -5.6e-4,0.053 -1.21554,1.43055 -2.69996,3.06115 -3.95401,4.34335 -5.11398,5.83633 -7.0749,9.10592 -1.502,2.50441 -2.58912,4.73887 -3.84644,7.90592 -1.39584,3.51599 -2.55089,5.94548 -3.51545,7.3943 -0.85341,1.28185 -2.23113,2.67496 -3.19175,3.22739 -1.51798,0.87294 -3.99368,1.23563 -6.42356,0.94103 z m -6.99722,-17.66863 c 0.79706,-1.77209 1.15205,-3.88834 1.16633,-6.95297 l 0.01,-2.11766 -0.49154,-1.05883 c -1.04552,-2.25215 -1.62332,-4.39642 -1.807,-6.70591 -0.16392,-2.06103 -0.32816,-2.68118 -0.84763,-3.20065 -0.45206,-0.45206 -0.68713,-0.48805 -1.25834,-0.19267 -1.17464,0.60743 -2.33347,3.11026 -3.46673,7.48746 -0.69182,2.67212 -0.84273,3.72824 -0.83716,5.85885 0.004,1.70535 0.0458,2.02392 0.39311,3.02769 0.43426,1.25512 1.05698,2.18736 2.03947,3.05316 1.327,1.1694 2.46045,1.6683 3.81154,1.67769 l 0.89121,0.006 0.39688,-0.88236 z m 14.27794,-6.12153 c 1.40742,-0.82237 1.42444,-3.45011 0.0481,-7.41704 -1.15754,-3.3362 -2.36753,-4.74272 -3.4234,-3.97947 -1.26304,0.91299 -2.33702,5.75795 -1.87038,8.43761 0.27853,1.59943 1.14324,2.9212 2.03472,3.11024 0.16873,0.0358 0.43383,0.0957 0.58913,0.13307 0.61432,0.14799 2.17083,-0.0209 2.62187,-0.28441 z m -9.28149,-25.19061 c 0.80773,-0.63536 0.57455,-2.107 -0.37542,-2.3693 -0.68301,-0.18859 -1.1719,-0.0565 -1.57832,0.42652 -1.05043,1.24837 0.66631,2.95548 1.95374,1.94278 z m 3.9979,-9.55534 c 0.12651,-0.50405 -0.4407,-1.54525 -1.07851,-1.97977 -0.55417,-0.37754 -0.61987,-0.38447 -0.90853,-0.0958 -0.44501,0.44501 -0.27129,0.84515 0.72649,1.67335 0.52159,0.43294 0.99685,0.78716 1.05614,0.78716 0.0593,0 0.15127,-0.17322 0.20441,-0.38494 z"
     id="path1000"
     transform="scale(0.75)" />
  <path
     style="fill:#ffffff;stroke-width:0.0869349"
     d="m 1064.17,938.49336 c -1.2899,-0.16369 -2.1299,-0.4976 -2.1299,-0.84672 0,-0.1602 0.3205,-0.48958 0.713,-0.73265 1.5144,-0.93807 6.8316,-1.98443 10.1974,-2.00672 1.212,-0.008 1.4802,0.0166 2.0845,0.19147 0.8253,0.23878 1.2219,0.4675 1.445,0.83322 0.7883,1.29277 -1.3679,2.23562 -5.8768,2.56973 -1.4425,0.10689 -5.5673,0.10155 -6.4332,-0.008 z"
     id="path1002"
     transform="scale(0.75)" />
  <path
     style="fill:#ffffff;stroke-width:0.0869349"
     d="m 1025.8317,941.05638 c -2.7448,-0.22174 -4.7919,-0.48094 -5.0998,-0.64576 -0.1415,-0.0757 -0.152,-0.11425 -0.061,-0.22379 0.148,-0.17839 1.9694,-1.08389 2.7302,-1.35735 3.707,-1.33242 13.4925,-1.79644 15.8541,-0.7518 0.727,0.32156 0.8533,0.5619 0.5189,0.98707 -0.6943,0.88258 -3.2775,1.58277 -7.0753,1.91778 -1.3206,0.1165 -5.7494,0.16412 -6.867,0.0738 z"
     id="path1004"
     transform="scale(0.75)" />
  <path
     style="fill:#ffffff;stroke-width:0.0869349"
     d="m 1021.9072,920.85631 c -0.4231,-0.13245 -0.4329,-0.32153 -0.036,-0.69866 1.1894,-1.13148 5.759,-3.03414 8.758,-3.64663 3.3591,-0.68603 5.5225,-0.30902 5.2915,0.92217 -0.1561,0.83213 -1.2915,1.42135 -4.003,2.07734 -1.4804,0.35815 -4.4874,0.94381 -6.0592,1.18013 -1.3262,0.19939 -3.5458,0.29245 -3.9508,0.16565 z"
     id="path1006"
     transform="scale(0.75)" />
  <path
     style="fill:#ffffff;stroke-width:0.0869349"
     d="m 1064.17,919.93576 c -0.4972,-0.0748 -0.9906,-0.30309 -1.0483,-0.48494 -0.2326,-0.73293 2.3937,-2.04687 6.3948,-3.19928 3.019,-0.86954 4.8235,-1.24719 5.9985,-1.2554 0.7597,-0.005 0.96,0.0222 1.194,0.16367 0.3529,0.21347 0.5447,0.60977 0.5447,1.12538 0,0.34618 -0.044,0.44352 -0.3262,0.72581 -1.0291,1.02825 -4.5653,2.11362 -8.8398,2.71318 -1.2589,0.17657 -3.3868,0.29149 -3.9177,0.21158 z"
     id="path1008"
     transform="scale(0.75)" />
  <path
     style="fill:#ffffff;stroke-width:0.0869349"
     d="m 1079.9715,997.59449 c -0.4446,-0.23278 -1.5607,-1.16835 -2.055,-1.72253 -0.1972,-0.22106 -1.0529,-1.1473 -1.9016,-2.05831 -0.8487,-0.911 -1.5431,-1.68228 -1.5431,-1.71393 0,-0.0317 1.7311,-0.0404 3.8469,-0.0193 3.0163,0.03 4.0317,0.069 4.7029,0.18071 1.5496,0.25788 2.2301,0.52939 2.2301,0.88968 0,0.65975 -1.5358,2.59008 -3.0232,3.79981 -1.0617,0.86357 -1.5639,1.00682 -2.257,0.6439 z"
     id="path1010"
     transform="scale(0.75)" />
  <path
     style="fill:#ffffff;stroke-width:0.0869349"
     d="m 1037.3128,999.40137 c -0.2587,-0.27906 -0.8054,-1.40447 -1.2141,-2.49912 -0.7298,-1.95466 -0.972,-3.76094 -0.6341,-4.72936 0.3114,-0.89274 1.1869,-1.41803 2.382,-1.42922 1.6686,-0.0156 1.8421,0.87285 0.9952,5.09554 -0.4465,2.22617 -0.7564,3.32426 -1.0208,3.61634 -0.1956,0.21622 -0.2644,0.20889 -0.5082,-0.0542 z"
     id="path1012"
     transform="scale(0.75)" />
  <path
     style="fill:#ffffff;stroke-width:0.0869349"
     d="m 1071.2468,1014.5726 c -1.0353,-0.1752 -1.4939,-0.7838 -1.7355,-2.3033 -0.1183,-0.7437 -0.1282,-6.6162 -0.012,-7.1431 0.06,-0.2728 0.082,-0.2509 2.0168,2.0153 2.0609,2.4138 3.107,3.8694 3.5557,4.9471 0.3537,0.8496 0.3565,1.2662 0.011,1.5573 -0.7886,0.6636 -2.6842,1.1216 -3.8355,0.9267 z"
     id="path1014"
     transform="scale(0.75)" />
  <path
     style="fill:#ffffff;stroke-width:0.0869349"
     d="m 1044.9298,1024.5797 c -1.4725,-0.5085 -2.2611,-2.5463 -2.1766,-5.6243 0.026,-0.9312 0.062,-1.1807 0.2132,-1.4694 0.2505,-0.4778 0.6274,-0.681 1.2518,-0.6751 1.6643,0.016 3.9394,1.4773 4.9749,3.1962 0.6948,1.1535 0.8429,1.9608 0.478,2.6052 -0.5254,0.9276 -2.8062,2.1359 -4.0182,2.1286 -0.1434,-8e-4 -0.4688,-0.073 -0.7231,-0.1612 z"
     id="path1016"
     transform="scale(0.75)" />
</svg>
